<svg width="126" height="114" viewBox="0 0 126 114" fill="none" xmlns="http://www.w3.org/2000/svg">
<path d="M63.625 113.25C61.8542 113.25 60.3438 112.636 59.0938 111.408C57.8438 110.18 57.2188 108.659 57.2188 106.844C57.2188 106.115 57.375 105.359 57.6875 104.578C58 103.797 58.4688 103.094 59.0938 102.469L88 73.5625L84.7188 70.2812L55.8125 99.1875C55.1875 99.8125 54.5104 100.281 53.7812 100.594C53.0521 100.906 52.2708 101.062 51.4375 101.062C49.6667 101.062 48.1823 100.464 46.9844 99.2656C45.7865 98.0677 45.1875 96.5833 45.1875 94.8125C45.1875 93.7708 45.3438 92.9115 45.6562 92.2344C45.9688 91.5573 46.3854 90.9583 46.9062 90.4375L75.8125 61.5312L72.5312 58.25L43.625 87C43 87.625 42.3229 88.0938 41.5938 88.4062C40.8646 88.7188 40.0312 88.875 39.0938 88.875C37.4271 88.875 35.9688 88.25 34.7188 87C33.4688 85.75 32.8438 84.2917 32.8438 82.625C32.8438 81.7917 33 81.0104 33.3125 80.2812C33.625 79.5521 34.0938 78.875 34.7188 78.25L63.625 49.3438L60.3438 46.0625L31.5938 74.9688C31.0729 75.4896 30.4479 75.9062 29.7188 76.2188C28.9896 76.5312 28.1042 76.6875 27.0625 76.6875C25.2917 76.6875 23.8073 76.1035 22.6094 74.9355C21.4115 73.7676 20.8125 72.3203 20.8125 70.5938C20.8125 69.7604 20.9688 68.9792 21.2812 68.25C21.5938 67.5208 22.0625 66.8438 22.6875 66.2188L57.5312 31.375L77.375 51.2188C78.5208 52.3646 79.7969 53.3281 81.2031 54.1094C82.6094 54.8906 84.3021 55.2812 86.2812 55.2812C89.6146 55.2812 92.4271 54.2135 94.7188 52.0781C97.0104 49.9427 98.1562 47.0521 98.1562 43.4062C98.1562 41.9479 97.8698 40.5156 97.2969 39.1094C96.724 37.7031 95.7604 36.3229 94.4062 34.9688L66.4375 7L67.375 5.90625C69.1458 4.23958 71.125 2.96354 73.3125 2.07812C75.5 1.19271 77.6875 0.75 79.875 0.75C82.5833 0.75 85.0833 1.19271 87.375 2.07812C89.6667 2.96354 91.75 4.34375 93.625 6.21875L120.031 32.7812C121.906 34.6562 123.286 36.7396 124.172 39.0312C125.057 41.3229 125.5 43.9792 125.5 47C125.5 49.0833 125.031 51.1927 124.094 53.3281C123.156 55.4635 121.802 57.4167 120.031 59.1875L68 111.375C67.1667 112.208 66.4375 112.729 65.8125 112.938C65.1875 113.146 64.4583 113.25 63.625 113.25ZM14.4062 67.625L5.96875 59.1875C4.19792 57.5208 2.84375 55.5417 1.90625 53.25C0.96875 50.9583 0.5 48.5625 0.5 46.0625C0.5 43.3542 1.02083 40.8542 2.0625 38.5625C3.10417 36.2708 4.40625 34.3438 5.96875 32.7812L32.375 6.21875C34.0417 4.55208 36.0208 3.22396 38.3125 2.23438C40.6042 1.24479 42.8438 0.75 45.0312 0.75C47.8438 0.75 50.3438 1.14062 52.5312 1.92188C54.7188 2.70312 56.8542 4.13542 58.9375 6.21875L90.9688 38.25C91.9062 39.1875 92.5573 40.0729 92.9219 40.9062C93.2865 41.7396 93.4688 42.5729 93.4688 43.4062C93.4688 45.4896 92.7917 47.2083 91.4375 48.5625C90.0833 49.9167 88.3646 50.5938 86.2812 50.5938C85.3438 50.5938 84.3802 50.3594 83.3906 49.8906C82.401 49.4219 81.4375 48.7188 80.5 47.7812L57.375 24.6562L14.4062 67.625Z" fill="black"/>
</svg>
