<svg width="132" height="132" viewBox="0 0 132 132" fill="none" xmlns="http://www.w3.org/2000/svg">
<path d="M114.312 85.5312V35.2188L81.5 12.25L48.6875 35.2188V55.375H39.3125V30.5312L81.5 0.375L123.688 30.5312V85.5312H114.312ZM84.625 44.125H90.875V37.875H84.625V44.125ZM72.125 44.125H78.375V37.875H72.125V44.125ZM84.625 56.625H90.875V50.375H84.625V56.625ZM72.125 56.625H78.375V50.375H72.125V56.625ZM82.4375 131.312L33.8438 117.406V126.312H0.25V64.75H48.5312L88.375 79.75C91.1875 80.7917 93.5573 82.4844 95.4844 84.8281C97.4115 87.1719 98.375 90.5312 98.375 94.9062H116.188C120.562 94.9062 124.208 96.4688 127.125 99.5938C130.042 102.719 131.5 106.938 131.5 112.25V116.312L82.4375 131.312ZM9.625 116.938H24.3125V74.125H9.625V116.938ZM81.8125 121.625L121.812 109.438C121.188 107.458 120.406 106.104 119.469 105.375C118.531 104.646 117.438 104.281 116.188 104.281H83.8438C80.7188 104.281 77.8281 104.073 75.1719 103.656C72.5156 103.24 69.9896 102.667 67.5938 101.938L54.9375 98.0312L58.375 88.9688L69.7812 92.7188C72.3854 93.5521 74.8594 94.125 77.2031 94.4375C79.5469 94.75 83.2708 94.9062 88.375 94.9062C88.375 93.6562 88.1406 92.4323 87.6719 91.2344C87.2031 90.0365 86.3958 89.1771 85.25 88.6562L46.9688 74.125H33.8438V107.562L81.8125 121.625Z" fill="black"/>
</svg>
