<svg width="48" height="69" viewBox="0 0 48 69" fill="none" xmlns="http://www.w3.org/2000/svg">
<path d="M13.6014 69V55.5879H15.4724V61.5488H16.1679L18.5688 55.5879H20.771L17.7906 61.9628L20.771 69H18.9L16.1844 62.4595H15.4724V69H13.6014Z" fill="black"/>
<path d="M21.3624 69V55.5879H26.5804L25.3976 56.9788H23.2335V61.4163H24.8063L25.6933 62.1993L24.8063 62.741H23.2335V67.6588H25.3976L26.5948 69H21.3624Z" fill="black"/>
<path d="M27.276 69V55.5879H30.3558C30.963 55.5879 31.4873 55.6541 31.9289 55.7866C32.3814 55.9191 32.7568 56.1233 33.0548 56.3992C33.3528 56.6752 33.5736 57.0284 33.7171 57.459C33.8606 57.8784 33.9324 58.3752 33.9324 58.9492C33.9324 59.5011 33.8606 59.9813 33.7171 60.3897C33.5847 60.7871 33.3749 61.1017 33.0879 61.3336C32.812 61.5654 32.4532 61.7144 32.0116 61.7806C32.5525 61.902 32.9886 62.1118 33.3197 62.4098C33.6509 62.6968 33.8937 63.0722 34.0483 63.5358C34.2139 63.9884 34.2967 64.5348 34.2967 65.175C34.2967 65.7491 34.2304 66.2734 34.098 66.7481C33.9655 67.2227 33.7558 67.6256 33.4688 67.9568C33.1928 68.288 32.834 68.5474 32.3925 68.735C31.962 68.9116 31.4487 69 30.8526 69H27.276ZM29.1471 67.6588H30.4055C31.2444 67.6588 31.8019 67.4656 32.0779 67.0792C32.3649 66.6818 32.5084 66.0471 32.5084 65.175C32.5084 64.6121 32.4311 64.1429 32.2766 63.7676C32.1331 63.3812 31.8957 63.0942 31.5646 62.9066C31.2444 62.7079 30.8084 62.6085 30.2565 62.6085H29.1471V67.6588ZM29.1471 61.1845H30.2565C30.7863 61.1845 31.2003 61.1128 31.4983 60.9693C31.7964 60.8147 32.0061 60.5719 32.1275 60.2407C32.249 59.9096 32.3097 59.479 32.3097 58.9492C32.3097 58.331 32.2159 57.8839 32.0282 57.608C31.8405 57.332 31.548 57.1609 31.1506 57.0947C30.7532 57.0174 30.2344 56.9788 29.5942 56.9788H29.1471V61.1845Z" fill="black"/>
<g clip-path="url(#clip0_106_104)">
<path d="M40.662 19.0543H7.23828V51.7486H40.662V19.0543Z" fill="black"/>
<path d="M23.9501 0L0 26.5511H47.9002L23.9501 0L0 26.5511H47.9002L23.9501 0Z" fill="black"/>
<path d="M40.662 7.70502H35.8719V18.8461H40.662V7.70502Z" fill="black"/>
<path d="M36.4053 7.0709C36.3574 7.03029 36.3382 6.93658 36.3616 6.85953C36.5404 6.27437 36.5905 5.73606 36.5117 5.25605C36.4712 5.01241 36.4095 4.85206 36.3435 4.68234C36.2743 4.50429 36.203 4.32 36.1583 4.04303C36.0636 3.45682 36.1519 2.7842 36.4191 2.04285C36.4478 1.96267 36.5117 1.9356 36.5607 1.98454C36.6064 2.03035 36.6224 2.12615 36.5958 2.20111C36.3542 2.86749 36.2733 3.45891 36.3542 3.96182C36.3914 4.18984 36.451 4.34603 36.516 4.51054C36.5873 4.69275 36.6597 4.88121 36.7086 5.17171C36.8012 5.72773 36.7459 6.341 36.5458 6.99697C36.5202 7.08027 36.4574 7.11359 36.4063 7.06986L36.4053 7.0709Z" fill="black"/>
<path d="M39.9978 7.0709C39.9499 7.03029 39.9307 6.93658 39.9541 6.85953C40.133 6.27437 40.183 5.73606 40.1042 5.25605C40.0638 5.01241 40.002 4.85206 39.936 4.68234C39.8669 4.50429 39.7955 4.32 39.7508 4.04303C39.6561 3.45682 39.7444 2.7842 40.0116 2.04285C40.0404 1.96267 40.1042 1.9356 40.1532 1.98454C40.199 2.03035 40.2149 2.12615 40.1883 2.20111C39.9467 2.86749 39.8658 3.45891 39.9467 3.96182C39.9839 4.18984 40.0436 4.34603 40.1085 4.51054C40.1798 4.69275 40.2522 4.88121 40.3011 5.17171C40.3938 5.72773 40.3384 6.341 40.1383 6.99697C40.1127 7.08027 40.0499 7.11359 39.9988 7.06986L39.9978 7.0709Z" fill="black"/>
<path d="M38.201 7.0709C38.1531 7.03029 38.1339 6.93658 38.1573 6.85953C38.3362 6.27437 38.3862 5.73606 38.3074 5.25605C38.267 5.01241 38.2052 4.85206 38.1392 4.68234C38.07 4.50429 37.9987 4.32 37.954 4.04303C37.8593 3.45682 37.9476 2.7842 38.2148 2.04285C38.2435 1.96267 38.3074 1.9356 38.3564 1.98454C38.4021 2.03035 38.4181 2.12615 38.3915 2.20111C38.1499 2.86749 38.069 3.45891 38.1499 3.96182C38.1871 4.18984 38.2467 4.34603 38.3117 4.51054C38.383 4.69275 38.4554 4.88121 38.5043 5.17171C38.5969 5.72773 38.5416 6.341 38.3415 6.99697C38.3159 7.08027 38.2531 7.11359 38.202 7.06986L38.201 7.0709Z" fill="black"/>
</g>
<defs>
<clipPath id="clip0_106_104">
<rect width="47.9002" height="51.7486" fill="white"/>
</clipPath>
</defs>
</svg>
