<svg width="81" height="117" viewBox="0 0 81 117" fill="none" xmlns="http://www.w3.org/2000/svg">
<path d="M23 116.68V94H26.164V104.08H27.34L31.4 94H35.124L30.084 104.78L35.124 116.68H31.96L27.368 105.62H26.164V116.68H23Z" fill="white"/>
<path d="M36.124 116.68V94H44.9476L42.9476 96.352H39.288V103.856H41.9476L43.4476 105.18L41.9476 106.096H39.288V114.412H42.9476L44.972 116.68H36.124Z" fill="white"/>
<path d="M46.124 116.68V94H51.332C52.3587 94 53.2454 94.112 53.992 94.336C54.7574 94.56 55.392 94.9053 55.896 95.372C56.4 95.8387 56.7734 96.436 57.016 97.164C57.2587 97.8733 57.38 98.7133 57.38 99.684C57.38 100.617 57.2587 101.429 57.016 102.12C56.792 102.792 56.4374 103.324 55.952 103.716C55.4854 104.108 54.8787 104.36 54.132 104.472C55.0467 104.677 55.784 105.032 56.344 105.536C56.904 106.021 57.3147 106.656 57.576 107.44C57.856 108.205 57.996 109.129 57.996 110.212C57.996 111.183 57.884 112.069 57.66 112.872C57.436 113.675 57.0814 114.356 56.596 114.916C56.1294 115.476 55.5227 115.915 54.776 116.232C54.048 116.531 53.18 116.68 52.172 116.68H46.124ZM49.288 114.412H51.416C52.8347 114.412 53.7774 114.085 54.244 113.432C54.7294 112.76 54.972 111.687 54.972 110.212C54.972 109.26 54.8414 108.467 54.58 107.832C54.3374 107.179 53.936 106.693 53.376 106.376C52.8347 106.04 52.0974 105.872 51.164 105.872H49.288V114.412ZM49.288 103.464H51.164C52.06 103.464 52.76 103.343 53.264 103.1C53.768 102.839 54.1227 102.428 54.328 101.868C54.5334 101.308 54.636 100.58 54.636 99.684C54.636 98.6387 54.4774 97.8827 54.16 97.416C53.8427 96.9493 53.348 96.66 52.676 96.548C52.004 96.4173 51.1267 96.352 50.044 96.352H49.288V103.464Z" fill="white"/>
<g clip-path="url(#clip0_18_2)">
<path d="M68.76 32.2211H12.24V87.5077H68.76V32.2211Z" fill="white"/>
<path d="M40.5 0L0 44.8983H81L40.5 0L0 44.8983H81L40.5 0Z" fill="white"/>
<path d="M68.7599 13.0293H60.6599V31.869H68.7599V13.0293Z" fill="white"/>
<path d="M61.5617 11.957C61.4807 11.8884 61.4483 11.7299 61.4879 11.5996C61.7903 10.6101 61.8749 9.6998 61.7417 8.88811C61.6733 8.4761 61.5689 8.20495 61.4573 7.91795C61.3403 7.61687 61.2197 7.30522 61.1441 6.83687C60.9839 5.84559 61.1333 4.70816 61.5851 3.45453C61.6337 3.31896 61.7417 3.27318 61.8245 3.35593C61.9019 3.4334 61.9289 3.59539 61.8839 3.72216C61.4753 4.84902 61.3385 5.84911 61.4753 6.69954C61.5383 7.08513 61.6391 7.34924 61.7489 7.62743C61.8695 7.93556 61.9919 8.25425 62.0747 8.74549C62.2313 9.68571 62.1377 10.7228 61.7993 11.832C61.7561 11.9729 61.6499 12.0292 61.5635 11.9553L61.5617 11.957Z" fill="white"/>
<path d="M67.6369 11.957C67.5559 11.8884 67.5235 11.7299 67.5631 11.5996C67.8655 10.6101 67.9501 9.6998 67.8169 8.88811C67.7485 8.4761 67.6441 8.20495 67.5325 7.91795C67.4155 7.61687 67.2949 7.30522 67.2193 6.83687C67.0591 5.84559 67.2085 4.70816 67.6603 3.45453C67.7089 3.31896 67.8169 3.27318 67.8997 3.35593C67.9771 3.4334 68.0041 3.59539 67.9591 3.72216C67.5505 4.84902 67.4137 5.84911 67.5505 6.69954C67.6135 7.08513 67.7143 7.34924 67.8241 7.62743C67.9447 7.93556 68.0671 8.25425 68.1499 8.74549C68.3065 9.68571 68.2129 10.7228 67.8745 11.832C67.8313 11.9729 67.7251 12.0292 67.6387 11.9553L67.6369 11.957Z" fill="white"/>
<path d="M64.5983 11.957C64.5173 11.8884 64.4849 11.7299 64.5245 11.5996C64.8269 10.6101 64.9115 9.6998 64.7783 8.88811C64.7099 8.4761 64.6055 8.20495 64.4939 7.91795C64.3769 7.61687 64.2563 7.30522 64.1807 6.83687C64.0205 5.84559 64.1699 4.70816 64.6217 3.45453C64.6703 3.31896 64.7783 3.27318 64.8611 3.35593C64.9385 3.4334 64.9655 3.59539 64.9205 3.72216C64.5119 4.84902 64.3751 5.84911 64.5119 6.69954C64.5749 7.08513 64.6757 7.34924 64.7855 7.62743C64.9061 7.93556 65.0285 8.25425 65.1113 8.74549C65.2679 9.68571 65.1743 10.7228 64.8359 11.832C64.7927 11.9729 64.6865 12.0292 64.6001 11.9553L64.5983 11.957Z" fill="white"/>
</g>
<defs>
<clipPath id="clip0_18_2">
<rect width="81" height="87.5077" fill="white"/>
</clipPath>
</defs>
</svg>
