<svg width="126" height="126" viewBox="0 0 126 126" fill="none" xmlns="http://www.w3.org/2000/svg">
<path d="M63 125.5C54.3542 125.5 46.2292 123.859 38.625 120.578C31.0208 117.297 24.4062 112.844 18.7812 107.219C13.1562 101.594 8.70312 94.9792 5.42188 87.375C2.14062 79.7708 0.5 71.6458 0.5 63C0.5 54.3542 2.14062 46.2292 5.42188 38.625C8.70312 31.0208 13.1562 24.4062 18.7812 18.7812C24.4062 13.1562 31.0208 8.70312 38.625 5.42188C46.2292 2.14062 54.3542 0.5 63 0.5C71.6458 0.5 79.7708 2.14062 87.375 5.42188C94.9792 8.70312 101.594 13.1562 107.219 18.7812C112.844 24.4062 117.297 31.0208 120.578 38.625C123.859 46.2292 125.5 54.3542 125.5 63C125.5 71.6458 123.859 79.7708 120.578 87.375C117.297 94.9792 112.844 101.594 107.219 107.219C101.594 112.844 94.9792 117.297 87.375 120.578C79.7708 123.859 71.6458 125.5 63 125.5ZM56.2812 115.969V103.156C52.6354 103.156 49.5625 101.802 47.0625 99.0938C44.5625 96.3854 43.3125 93.2083 43.3125 89.5625V82.6875L11.2812 50.6562C10.7604 52.7396 10.3958 54.7969 10.1875 56.8281C9.97917 58.8594 9.875 60.9167 9.875 63C9.875 76.5417 14.276 88.3646 23.0781 98.4688C31.8802 108.573 42.9479 114.406 56.2812 115.969ZM102.219 99.0938C104.51 96.5938 106.516 93.9375 108.234 91.125C109.953 88.3125 111.411 85.3698 112.609 82.2969C113.807 79.224 114.693 76.0729 115.266 72.8438C115.839 69.6146 116.125 66.3333 116.125 63C116.125 51.9583 113.104 41.9323 107.062 32.9219C101.021 23.9115 92.9479 17.3229 82.8438 13.1562V15.9688C82.8438 19.6146 81.5938 22.7917 79.0938 25.5C76.5938 28.2083 73.5208 29.5625 69.875 29.5625H56.2812V43.1562C56.2812 44.9271 55.5781 46.3854 54.1719 47.5312C52.7656 48.6771 51.1771 49.25 49.4062 49.25H36.4375V63H76.75C78.5208 63 79.9792 63.6771 81.125 65.0312C82.2708 66.3854 82.8438 67.9479 82.8438 69.7188V89.5625H89.5625C92.5833 89.5625 95.2396 90.4479 97.5312 92.2188C99.8229 93.9896 101.385 96.2812 102.219 99.0938Z" fill="black"/>
</svg>
